<svg xmlns="http://www.w3.org/2000/svg" viewBox="0 0 1333.32 828.84" shape-rendering="geometricPrecision" text-rendering="geometricPrecision" image-rendering="optimizeQuality" fill-rule="evenodd" clip-rule="evenodd"><path d="M666.66 715.71l666.67-418.69v113.09L666.66 828.84 0 410.11V297.02l666.66 418.69zm-.18-523.5c150.16 0 282.43 76.98 359.89 193.83h-.11l-98.13 61.68c-147.61-197.58-417.65-231.81-604.72-75.96-5.49 4.56-10.79 9.28-16.02 14.05l-.61-.07c77.46-116.67 209.65-193.54 359.7-193.54zm0 192.21c81.75 0 154 40.97 197.53 103.57h-.04l-94.67 59.48c-44.14-61.09-108.44-99.62-180.05-99.62-43.56 0-84.36 14.29-119.64 39.15 43.64-62.04 115.54-102.57 196.88-102.57zm-450.6-168.84c-23.98 19.07-50.72 46.42-71.35 68.25C256.82 111.95 450.94-.01 666.44-.01c218.62 0 410.9 113.06 522.23 284.25v-.04l-101.62 63.61-1.39-2.11C878.8 55.69 490.35-2.81 215.88 215.59z" fill="#f7991c"/></svg>