<svg xmlns="http://www.w3.org/2000/svg" viewBox="0 0 32 32" width="64" height="64">
    <g transform="matrix(.892666 0 0 .892666 -35.574937 -1.677449)">
        <path d="M41.168 17.366L57.58 3.332l.2.245L41.377 17.6zM58.772 3.143L74.34 18.107l-.223.232L58.55 3.375z"
            fill="#bcbcbc" />
        <path
            d="M70.683 30.453l-27.138-2.65c-2.252-.227-3.9-2.214-3.67-4.466l.53-5.507c.227-2.252 2.214-3.9 4.466-3.67l27.138 2.65c2.252.227 3.9 2.214 3.67 4.466l-.53 5.507a4.07 4.07 0 0 1-4.466 3.671z"
            fill="#046daa" />
        <path
            d="M69.623 23.83l.34-2.48c.038-.246.02-.5.057-.757.076-.568.568-1.04.965-.946.454.095.87.795.814 1.287l-.322 2.858-.397 2.782c-.076.322-.5.776-.795.795-.34.02-.87-.265-1.06-.568-.606-.984-1.098-2.044-1.628-3.066l-.53-1.003h-.208l-.114 1.363c-.114.757-.17 1.533-.397 2.27-.076.227-.606.473-.87.416s-.606-.454-.625-.738c-.038-.643.114-1.306.17-1.968l.2-2.12.303-1.892c.095-.5.416-.927.908-.852a1.67 1.67 0 0 1 1.04.7l1.78 3.463c.057.132.2.227.378.454zm-18.925-2.877c-.15 1.363-.473 2.782-1.95 3.5-.587.284-1.306.34-1.95.36-.9 0-1.78-.17-2.44-.9-1.06-1.192-1.476-2.498-.908-4.088.378-1.04.9-1.874 1.9-2.366 1.325-.625 2.593-.435 3.785.303 1.117.662 1.495 1.798 1.552 3.18zm-1.892-.114c-.02-.246 0-.5-.02-.757-.15-1.173-1.684-1.874-2.668-1.23-1.098.72-1.268 2.44-.852 3.406.397.927 1.06 1.154 2.3.946.55-.095 1.117-.833 1.192-1.6l.038-.757zm11.166 3.804l3.198.435c.5.057.927.322.7.833-.15.322-.68.662-1.04.643-1.04-.02-2.082-.227-3.123-.322-1.363-.114-1.93-.927-1.495-2.063.17-.454.114-1.003.17-1.495l.435-3.406c.038-.227.397-.568.625-.568 1.552.02 3.123-.15 4.6.454.2.076.397.662.303.757-.246.265-.625.53-.965.55-.662.02-1.306-.15-1.968-.2-1.04-.057-1.135.076-1.022 1.2l2.687.435c.454.057.87.15.814.72-.057.5-.397.833-.927.795-.587-.038-1.173-.2-1.76-.265-.984-.132-1.022-.095-1.154.908-.057.2-.057.397-.076.568zm-5.186-1.873c.02 0-.095.02-.208 0-1.476-.227-1.268-.095-1.457 1.306-.038.322-.02.662-.17.927-.227.397-.606.643-1.098.454-.454-.2-.7-.908-.606-1.495l.322-2.157.416-3.123c.076-.473.378-.757.852-.72 1.173.114 2.385.17 3.52.492.473.132 1.022.814 1.117 1.325.36 1.874-.53 3.123-2.687 3zm-1.23-1.57c.5 0 1.003.038 1.495-.02.2-.02.5-.208.53-.36.038-.303 0-.833-.17-.927-.492-.227-1.08-.34-1.628-.36-.076 0-.208.7-.284 1.08-.02.17.038.322.057.587z"
            fill="#fff" />
        <circle r="1.344" cy="3.41" cx="58.609" />
    </g>
</svg>
