<svg xmlns="http://www.w3.org/2000/svg" xmlns:xlink="http://www.w3.org/1999/xlink" width="1920" height="1080"
    viewBox="0 0 508 285.75">
    <defs>
        <radialGradient xlink:href="#a" id="b" cx="125.255" cy="16.735" fx="125.255" fy="16.735" r="254"
            gradientTransform="matrix(0 1.06475 -1.74952 0 154.532 -61.444)" gradientUnits="userSpaceOnUse" />
        <linearGradient id="a">
            <stop style="stop-color:#383838;stop-opacity:1" offset="0" />
            <stop style="stop-color:#282828;stop-opacity:1" offset="1" />
        </linearGradient>
        <style />
    </defs>
    <path style="opacity:.98;fill:url(#b);stroke-width:2.64583;fill-opacity:1" d="M0 0h508v285.75H0z" />
    <g transform="translate(101.871 -90.747) scale(.53287)">
        <path
            style="fill:#1c7e3e;fill-opacity:1;stroke:none;stroke-width:.999999px;stroke-linecap:butt;stroke-linejoin:miter;stroke-opacity:1"
            d="M322.12 1187.865c-17.059.01-40.056 3.434-56.071 19.07-28.47 27.799-29.416 65.374-29.416 65.374l86.176 765.925s-2.278 39.441 27.55 67.026c29.828 27.584 76.407 19.949 76.407 19.949l695.992-97.04s19.876.782 38.146-20.892c18.27-21.673 20.875-50.957 20.875-50.957v-60.382s-107.03-60.928-108.967-200.395c-1.936-139.467 108.967-210.404 108.967-210.404l.053-109.655s-1.35-39.166-19.566-60.234c-18.216-21.068-53.018-24.24-53.018-24.24l-764.187-101.086s-9.674-2.064-22.942-2.059zm145.622 189.082h100.924v136.612h204.727l94.304 259.74 102.6-259.74h107.853l-161.084 369.658H810.43l-113.034-291.418h-128.73v117.277s2.63 60.495 16.877 77.82c14.246 17.326 78.27 17.327 78.27 17.327v78.994h-95.147s-45.602 0-74.32-33.23c-28.719-33.23-26.604-72.848-26.604-72.848v-185.34h-63.236v-78.24h63.236z"
            transform="scale(.26458)" />
        <path
            style="fill:#fff;fill-opacity:1;stroke:none;stroke-width:.999999px;stroke-linecap:butt;stroke-linejoin:miter;stroke-opacity:1"
            d="M1385.353 1366.209v136.789h-101.587s-171.774-7.161-171.774 184.45c0 191.61 171.774 188.63 171.774 188.63h205.527V1366.21zm-87.47 221.168h87.47v206.129h-87.47s-80.264-16.536-80.264-106.916 80.264-99.213 80.264-99.213z"
            transform="scale(.26458)" />
        <path
            style="fill:#fff;fill-opacity:1;stroke:none;stroke-width:.264583px;stroke-linecap:butt;stroke-linejoin:miter;stroke-opacity:1"
            d="M434.983 361.476v36.192h26.879s46.506-1.894 46.506 48.803c0 50.696-46.506 49.908-46.506 49.908h-54.38V361.476zm23.143 58.518h-23.143v54.538h23.143s21.237-4.375 21.237-28.288-21.237-26.25-21.237-26.25z" />
        <circle
            style="opacity:.98;fill:#fff;fill-opacity:1;stroke:none;stroke-width:0;stroke-miterlimit:4;stroke-dasharray:none;stroke-opacity:1"
            cx="273.408" cy="379.862" r="14.659" />
    </g>
</svg>
